<?xml version="1.0" encoding="UTF-8"?>
<svg xmlns="http://www.w3.org/2000/svg" xmlns:xlink="http://www.w3.org/1999/xlink" viewBox="0 0 64 64" version="1.1" width="100px" height="100px">
<g id="surface1">
<path style=" fill:#C5E4FA;" d="M 7 7 L 57 7 L 57 39 L 7 39 Z "/>
<path style=" fill:#CED8ED;" d="M 63 51 L 1 51 L 7 39 L 57 39 Z "/>
<path style=" fill:#E3F2FF;" d="M 36.128906 39.128906 L 57 18.269531 L 57 7 L 55.269531 7 L 23.128906 39.128906 Z "/>
<path style=" fill:#E3F2FF;" d="M 14.128906 39.21875 L 19.351563 39.21875 L 51.570313 7 L 46.351563 7 Z "/>
<path style=" fill:#E3F2FF;" d="M 8.128906 38.871094 L 9.988281 38.871094 L 41.859375 7 L 38.609375 7 L 8.128906 37.480469 Z "/>
<path style=" fill:#B5C4E0;" d="M 1 51 L 63 51 L 63 57 L 1 57 Z "/>
<path style=" fill:#C2CDE7;" d="M 6 47 L 58 47 C 60.210938 47 62 48.789063 62 51 L 2 51 C 2 48.789063 3.789063 47 6 47 Z "/>
<path style=" fill:#8D6C9F;" d="M 63.46875 49.710938 L 58.109375 39 C 58.039063 38.859375 58 38.707031 58 38.550781 L 58 9 C 58 7.34375 56.65625 6 55 6 L 8.941406 6 C 8.144531 6 7.382813 6.316406 6.820313 6.878906 C 6.273438 7.449219 5.976563 8.210938 6 9 L 6 38.53125 C 6 38.6875 5.960938 38.839844 5.890625 38.980469 L 0.53125 49.710938 C 0.183594 50.402344 0 51.164063 0 51.941406 L 0 55 C 0 56.65625 1.34375 58 3 58 L 61 58 C 62.65625 58 64 56.65625 64 55 L 64 51.941406 C 64 51.164063 63.816406 50.402344 63.46875 49.710938 Z M 7.621094 40 L 45 40 C 45.550781 40 46 39.550781 46 39 C 46 38.449219 45.550781 38 45 38 L 8 38 L 8 9 C 7.984375 8.742188 8.070313 8.488281 8.238281 8.289063 C 8.425781 8.105469 8.675781 8 8.941406 8 L 55 8 C 55.550781 8 56 8.449219 56 9 L 56 38.53125 C 56 38.996094 56.109375 39.453125 56.320313 39.871094 L 61.378906 50 L 2.621094 50 Z M 62 55 C 62 55.550781 61.550781 56 61 56 L 3 56 C 2.449219 56 2 55.550781 2 55 L 2 52 L 62 52 Z "/>
<path style=" fill:#8D6C9F;" d="M 48 39 C 48 39.550781 48.449219 40 49 40 L 53 40 C 53.550781 40 54 39.550781 54 39 C 54 38.449219 53.550781 38 53 38 L 49 38 C 48.449219 38 48 38.449219 48 39 Z "/>
<path style=" fill:#8D6C9F;" d="M 18 47 C 18 47.550781 18.449219 48 19 48 L 21 48 C 21.550781 48 22 47.550781 22 47 C 22 46.449219 21.550781 46 21 46 L 19 46 C 18.449219 46 18 46.449219 18 47 Z "/>
<path style=" fill:#8D6C9F;" d="M 16 44 L 18 44 C 18.550781 44 19 43.550781 19 43 C 19 42.449219 18.550781 42 18 42 L 16 42 C 15.449219 42 15 42.449219 15 43 C 15 43.550781 15.449219 44 16 44 Z "/>
<path style=" fill:#8D6C9F;" d="M 24 47 C 24 47.550781 24.449219 48 25 48 L 39 48 C 39.550781 48 40 47.550781 40 47 C 40 46.449219 39.550781 46 39 46 L 25 46 C 24.449219 46 24 46.449219 24 47 Z "/>
<path style=" fill:#8D6C9F;" d="M 22 44 L 24 44 C 24.550781 44 25 43.550781 25 43 C 25 42.449219 24.550781 42 24 42 L 22 42 C 21.449219 42 21 42.449219 21 43 C 21 43.550781 21.449219 44 22 44 Z "/>
<path style=" fill:#8D6C9F;" d="M 34 44 L 36 44 C 36.550781 44 37 43.550781 37 43 C 37 42.449219 36.550781 42 36 42 L 34 42 C 33.449219 42 33 42.449219 33 43 C 33 43.550781 33.449219 44 34 44 Z "/>
<path style=" fill:#8D6C9F;" d="M 42 47 C 42 47.550781 42.449219 48 43 48 L 45 48 C 45.550781 48 46 47.550781 46 47 C 46 46.449219 45.550781 46 45 46 L 43 46 C 42.449219 46 42 46.449219 42 47 Z "/>
<path style=" fill:#8D6C9F;" d="M 28 44 L 30 44 C 30.550781 44 31 43.550781 31 43 C 31 42.449219 30.550781 42 30 42 L 28 42 C 27.449219 42 27 42.449219 27 43 C 27 43.550781 27.449219 44 28 44 Z "/>
<path style=" fill:#8D6C9F;" d="M 40 44 L 42 44 C 42.550781 44 43 43.550781 43 43 C 43 42.449219 42.550781 42 42 42 L 40 42 C 39.449219 42 39 42.449219 39 43 C 39 43.550781 39.449219 44 40 44 Z "/>
<path style=" fill:#8D6C9F;" d="M 52 42 C 51.449219 42 51 42.449219 51 43 C 51 43.550781 51.449219 44 52 44 L 54 44 C 54.550781 44 55 43.550781 55 43 C 55 42.449219 54.550781 42 54 42 Z "/>
<path style=" fill:#8D6C9F;" d="M 46 44 L 48 44 C 48.550781 44 49 43.550781 49 43 C 49 42.449219 48.550781 42 48 42 L 46 42 C 45.449219 42 45 42.449219 45 43 C 45 43.550781 45.449219 44 46 44 Z "/>
<path style=" fill:#8D6C9F;" d="M 12 47 C 12 47.550781 12.449219 48 13 48 L 15 48 C 15.550781 48 16 47.550781 16 47 C 16 46.449219 15.550781 46 15 46 L 13 46 C 12.449219 46 12 46.449219 12 47 Z "/>
<path style=" fill:#8D6C9F;" d="M 10 44 L 12 44 C 12.550781 44 13 43.550781 13 43 C 13 42.449219 12.550781 42 12 42 L 10 42 C 9.449219 42 9 42.449219 9 43 C 9 43.550781 9.449219 44 10 44 Z "/>
<path style=" fill:#8D6C9F;" d="M 51 46 L 49 46 C 48.449219 46 48 46.449219 48 47 C 48 47.550781 48.449219 48 49 48 L 51 48 C 51.550781 48 52 47.550781 52 47 C 52 46.449219 51.550781 46 51 46 Z "/>
<path style=" fill:#8D6C9F;" d="M 28 16 L 26 16 C 25.449219 16 25 16.449219 25 17 C 25 17.550781 25.449219 18 26 18 L 28 18 C 28.550781 18 29 17.550781 29 17 C 29 16.449219 28.550781 16 28 16 Z "/>
<path style=" fill:#8D6C9F;" d="M 14 18 L 22 18 C 22.550781 18 23 17.550781 23 17 C 23 16.449219 22.550781 16 22 16 L 14 16 C 13.449219 16 13 16.449219 13 17 C 13 17.550781 13.449219 18 14 18 Z "/>
<path style=" fill:#8D6C9F;" d="M 14 22 L 26 22 C 26.550781 22 27 21.550781 27 21 C 27 20.449219 26.550781 20 26 20 L 14 20 C 13.449219 20 13 20.449219 13 21 C 13 21.550781 13.449219 22 14 22 Z "/>
<path style=" fill:#8D6C9F;" d="M 23 28 L 14 28 C 13.449219 28 13 28.449219 13 29 C 13 29.550781 13.449219 30 14 30 L 23 30 C 23.550781 30 24 29.550781 24 29 C 24 28.449219 23.550781 28 23 28 Z "/>
<path style=" fill:#8D6C9F;" d="M 28 24 L 14 24 C 13.449219 24 13 24.449219 13 25 C 13 25.550781 13.449219 26 14 26 L 28 26 C 28.550781 26 29 25.550781 29 25 C 29 24.449219 28.550781 24 28 24 Z "/>
<path style=" fill:#8D6C9F;" d="M 48 30 C 48.550781 30 49 29.550781 49 29 C 49 28.449219 48.550781 28 48 28 L 46 28 C 45.449219 28 45 28.449219 45 29 C 45 29.550781 45.449219 30 46 30 Z "/>
<path style=" fill:#8D6C9F;" d="M 42 28 L 36 28 C 35.449219 28 35 28.449219 35 29 C 35 29.550781 35.449219 30 36 30 L 42 30 C 42.550781 30 43 29.550781 43 29 C 43 28.449219 42.550781 28 42 28 Z "/>
<path style=" fill:#8D6C9F;" d="M 36 22 L 50 22 C 50.550781 22 51 21.550781 51 21 C 51 20.449219 50.550781 20 50 20 L 36 20 C 35.449219 20 35 20.449219 35 21 C 35 21.550781 35.449219 22 36 22 Z "/>
<path style=" fill:#8D6C9F;" d="M 36 18 L 46 18 C 46.550781 18 47 17.550781 47 17 C 47 16.449219 46.550781 16 46 16 L 36 16 C 35.449219 16 35 16.449219 35 17 C 35 17.550781 35.449219 18 36 18 Z "/>
<path style=" fill:#8D6C9F;" d="M 51 25 C 51 24.449219 50.550781 24 50 24 L 36 24 C 35.449219 24 35 24.449219 35 25 C 35 25.550781 35.449219 26 36 26 L 50 26 C 50.550781 26 51 25.550781 51 25 Z "/>
<path style=" fill:#FFF8F8;" d="M 18.5 9 L 19.738281 11.261719 L 22 12.5 L 19.738281 13.738281 L 18.5 16 L 17.261719 13.738281 L 15 12.5 L 17.261719 11.261719 Z "/>
<path style=" fill:#FFF8F8;" d="M 30.421875 29 L 31.269531 30.558594 L 32.839844 31.421875 L 31.269531 32.269531 L 30.421875 33.839844 L 29.558594 32.269531 L 28 31.421875 L 29.558594 30.558594 Z "/>
<path style=" fill:#FFF8F8;" d="M 50.648438 12 L 51.230469 13.058594 L 52.300781 13.648438 L 51.230469 14.230469 L 50.648438 15.300781 L 50.058594 14.230469 L 49 13.648438 L 50.058594 13.058594 Z "/>
</g>
</svg>
