<?xml version="1.0" standalone="no"?>
<!DOCTYPE svg PUBLIC "-//W3C//DTD SVG 20010904//EN"
 "http://www.w3.org/TR/2001/REC-SVG-20010904/DTD/svg10.dtd">
<svg version="1.0" xmlns="http://www.w3.org/2000/svg"
 width="700.000000pt" height="700.000000pt" viewBox="0 0 700.000000 700.000000"
 preserveAspectRatio="xMidYMid meet">
<metadata>
Created by potrace 1.11, written by Peter Selinger 2001-2013
</metadata>
<g transform="translate(0.000000,700.000000) scale(0.100000,-0.100000)"
fill="#000000" stroke="none">
<path d="M4635 6221 c-148 -39 -275 -177 -292 -319 -3 -29 -7 -52 -8 -52 -1 0
-23 7 -49 16 -67 23 -161 15 -220 -20 -53 -31 -111 -96 -126 -141 -10 -30 -15
-33 -64 -38 -72 -7 -157 -51 -210 -107 -42 -45 -44 -46 -81 -36 -21 6 -42 18
-46 26 -5 8 -27 89 -50 179 -48 197 -66 229 -154 271 -36 17 -64 20 -253 20
-232 0 -260 -5 -315 -58 -44 -41 -61 -83 -102 -252 -21 -85 -43 -160 -49 -166
-6 -6 -42 -21 -81 -34 -38 -12 -117 -44 -174 -71 l-105 -49 -152 90 c-165 99
-207 115 -268 105 -66 -10 -113 -45 -253 -187 -138 -140 -172 -191 -173 -261
0 -51 14 -83 115 -250 l86 -144 -46 -94 c-25 -52 -58 -132 -74 -178 -16 -46
-33 -87 -38 -91 -4 -4 -57 -19 -118 -34 -191 -47 -243 -65 -282 -99 -67 -59
-73 -84 -73 -328 0 -170 3 -224 15 -250 37 -85 81 -110 276 -158 90 -23 170
-44 177 -49 7 -4 26 -44 42 -89 15 -45 49 -125 74 -179 l46 -96 -80 -133 c-99
-165 -120 -209 -120 -260 0 -75 38 -130 191 -281 79 -78 154 -145 166 -148 22
-7 21 -8 -13 -38 -19 -17 -47 -54 -62 -82 -22 -42 -26 -64 -26 -126 0 -91 29
-157 95 -214 67 -57 112 -67 295 -64 l159 3 0 30 0 30 -165 5 c-152 5 -168 7
-210 30 -136 77 -139 277 -5 356 92 53 184 26 206 -62 14 -53 39 -60 39 -10 0
46 -37 97 -87 121 -50 24 -57 38 -44 94 15 67 55 119 114 147 81 37 150 29
218 -26 56 -44 71 -40 99 27 86 208 357 216 449 13 12 -26 21 -67 21 -96 0
-72 17 -84 76 -54 80 39 149 13 193 -73 22 -45 25 -47 65 -47 128 0 226 -90
226 -210 0 -88 -66 -177 -147 -199 -22 -7 -154 -11 -319 -11 -245 0 -283 -2
-295 -16 -9 -11 -10 -20 -2 -32 9 -15 42 -17 324 -17 303 0 315 1 354 22 96
52 146 130 154 243 l6 75 890 5 c999 6 934 1 1089 83 242 129 391 396 372 668
-12 178 -77 321 -206 450 -111 112 -215 169 -372 203 -19 4 -28 13 -28 25 0
11 -11 52 -25 93 -23 69 -25 85 -25 289 0 221 -5 261 -42 308 -40 52 -78 69
-251 111 -95 24 -177 48 -183 54 -6 6 -21 43 -33 81 -13 39 -45 117 -72 174
l-49 104 67 114 68 113 146 0 c122 0 149 3 160 16 9 11 10 20 2 32 -9 15 -62
17 -574 22 -507 4 -568 7 -602 22 -62 28 -111 73 -142 130 -25 45 -29 64 -29
128 0 64 4 83 29 128 50 93 126 140 237 149 63 6 71 8 80 32 31 79 50 112 80
134 40 29 90 47 132 47 39 0 113 -34 148 -67 14 -13 34 -23 45 -21 16 3 18 14
18 98 0 82 4 103 26 150 34 71 89 126 158 159 46 21 70 26 131 25 155 -2 261
-91 300 -254 20 -80 35 -85 92 -35 62 57 121 80 203 79 148 -1 257 -105 272
-257 l6 -64 -50 -7 c-82 -11 -168 -82 -175 -145 -5 -39 19 -35 40 6 35 68 88
103 156 103 17 0 36 4 41 9 15 14 101 -13 148 -46 23 -16 56 -53 74 -82 90
-149 25 -331 -144 -403 -18 -8 -118 -14 -288 -18 l-260 -5 0 -30 0 -30 270 0
270 0 55 27 c80 39 132 88 170 159 97 182 5 417 -189 486 l-49 17 -6 55 c-13
108 -88 210 -198 268 -46 24 -64 28 -143 28 -82 0 -96 -3 -156 -32 -37 -18
-69 -33 -72 -33 -2 0 -8 12 -12 28 -19 77 -108 173 -204 219 -59 27 -186 40
-246 24z m-1340 -362 c9 -9 39 -104 66 -215 37 -147 55 -204 70 -216 11 -10
47 -25 80 -34 l59 -17 0 -63 c0 -39 8 -84 21 -118 23 -63 90 -143 143 -171 20
-11 36 -22 36 -26 0 -3 -23 -37 -52 -75 -60 -79 -68 -123 -29 -155 30 -24 62
-24 93 1 37 29 108 143 108 173 l0 27 310 0 c171 0 310 -2 310 -5 0 -2 -27
-49 -60 -103 -33 -55 -60 -107 -60 -115 0 -8 27 -68 59 -134 32 -65 75 -168
95 -230 21 -61 43 -116 49 -122 7 -5 102 -32 211 -60 110 -27 206 -57 215 -66
13 -13 16 -46 19 -203 2 -137 -1 -194 -11 -212 -11 -22 -34 -31 -216 -77 -112
-28 -211 -58 -219 -67 -8 -8 -32 -67 -53 -130 -21 -63 -63 -165 -94 -227 -37
-73 -55 -119 -51 -133 3 -12 50 -98 106 -190 59 -99 100 -179 100 -194 0 -39
-263 -302 -302 -302 -16 0 -91 39 -193 100 -91 55 -176 102 -189 106 -16 4
-57 -11 -134 -50 -61 -31 -159 -72 -219 -92 -59 -20 -118 -42 -129 -49 -15
-10 -27 -36 -39 -84 -9 -39 -19 -71 -21 -71 -2 0 -22 10 -45 22 -23 11 -62 23
-88 26 -42 4 -49 9 -76 50 -43 65 -101 94 -183 90 -60 -3 -62 -2 -62 22 0 59
-72 168 -140 212 -23 15 -21 15 35 2 33 -8 112 -17 176 -21 110 -5 117 -5 138
16 26 26 28 81 3 104 -13 12 -52 20 -133 27 -513 45 -919 408 -1015 909 -19
98 -19 304 0 402 50 260 187 491 392 660 67 55 74 65 74 97 0 47 -24 72 -68
72 -61 0 -224 -149 -334 -304 -226 -321 -291 -751 -168 -1118 109 -326 335
-585 642 -737 l117 -58 -63 -5 c-78 -7 -152 -45 -206 -106 l-39 -43 -32 16
c-26 14 -39 15 -73 6 -22 -5 -68 -12 -102 -14 -33 -3 -79 -14 -101 -25 -46
-24 -121 -104 -129 -139 -5 -17 -13 -23 -32 -23 -39 0 -302 263 -302 302 0 16
39 91 100 193 55 91 102 176 106 189 4 16 -11 56 -50 133 -30 61 -73 163 -95
228 -22 65 -46 124 -53 131 -7 7 -102 35 -212 63 -110 27 -206 57 -215 66 -13
13 -16 46 -19 203 -2 137 1 194 11 212 11 22 34 31 216 77 132 33 210 58 221
70 9 10 32 65 49 123 18 58 60 159 92 225 41 82 58 126 54 142 -3 12 -50 97
-105 188 -61 101 -100 177 -100 193 0 39 263 302 302 302 16 0 91 -39 193
-100 91 -55 177 -103 190 -106 18 -4 48 6 107 38 90 49 210 98 300 123 32 9
66 24 77 33 15 12 33 68 66 202 53 215 57 227 87 240 13 5 107 8 210 7 157 -2
190 -5 203 -18z"/>
<path d="M3421 5171 c-11 -11 -32 -58 -47 -106 -26 -80 -27 -88 -13 -113 20
-37 63 -51 97 -31 20 11 34 34 54 89 33 92 35 133 8 160 -25 25 -74 26 -99 1z"/>
<path d="M2864 5165 c-115 -21 -182 -43 -194 -66 -18 -33 -8 -80 21 -101 26
-20 27 -20 113 2 48 12 136 25 197 30 125 9 149 21 149 77 0 58 -26 73 -127
72 -49 0 -120 -7 -159 -14z"/>
<path d="M2815 4795 c-325 -103 -562 -363 -629 -687 -20 -97 -20 -280 -1 -373
15 -74 46 -115 86 -115 26 0 488 265 517 296 12 14 22 35 22 47 1 38 37 105
84 155 l46 49 0 301 0 301 -26 20 c-30 24 -42 24 -99 6z m-15 -363 l0 -199
-26 -24 c-33 -31 -62 -78 -90 -148 l-23 -56 -168 -97 -168 -97 -8 42 c-4 23
-5 76 -1 117 23 273 170 500 403 624 36 19 69 36 74 36 4 0 7 -89 7 -198z"/>
<path d="M3246 4789 l-26 -20 0 -301 0 -301 46 -49 c47 -50 83 -117 84 -155 0
-12 10 -33 23 -47 28 -31 490 -296 516 -296 40 0 71 41 86 115 19 93 19 276
-1 373 -67 326 -309 589 -634 688 -59 18 -63 18 -94 -7z m194 -195 c231 -121
381 -352 404 -624 4 -41 3 -94 -1 -117 l-8 -42 -168 97 -168 97 -23 56 c-28
70 -57 117 -90 148 l-26 24 0 199 c0 109 3 198 6 198 3 0 37 -16 74 -36z"/>
<path d="M4002 4683 c-78 -56 -96 -82 -87 -123 8 -36 54 -65 88 -54 24 7 134
87 155 113 18 23 15 68 -8 91 -32 32 -77 24 -148 -27z"/>
<path d="M4170 4352 c-55 -20 -78 -34 -89 -54 -20 -34 -6 -77 31 -97 25 -14
33 -13 113 13 48 15 95 36 106 47 25 25 24 74 -1 99 -27 27 -68 25 -160 -8z"/>
<path d="M3003 4040 c-87 -52 -83 -198 6 -245 98 -50 211 16 211 123 0 85 -56
142 -140 142 -27 0 -58 -8 -77 -20z"/>
<path d="M4147 3972 c-23 -25 -22 -85 1 -105 15 -14 40 -17 120 -17 115 0 142
13 142 70 0 57 -27 70 -143 70 -88 0 -106 -3 -120 -18z"/>
<path d="M2681 3536 c-128 -75 -237 -136 -243 -136 -14 0 -35 -59 -30 -86 10
-53 202 -193 332 -243 109 -42 214 -61 340 -61 132 0 235 19 347 65 134 54
317 188 325 238 9 56 -4 67 -255 212 -234 135 -244 140 -292 137 -90 -6 -199
-5 -245 2 -44 7 -49 5 -279 -128z m374 -33 c44 -3 97 -1 118 5 37 10 42 8 205
-85 92 -53 169 -98 172 -100 19 -16 -173 -116 -276 -144 -111 -31 -277 -31
-388 0 -114 31 -302 133 -271 147 6 2 82 47 170 98 91 54 166 92 175 89 8 -3
51 -8 95 -10z"/>
<path d="M4095 3625 c-31 -30 -32 -69 -2 -99 24 -24 146 -66 191 -66 57 0 88
78 47 119 -19 19 -161 71 -194 71 -10 0 -29 -11 -42 -25z"/>
<path d="M3948 3325 c-34 -19 -46 -60 -27 -94 23 -40 139 -119 177 -120 40 -1
72 29 72 67 0 35 -10 48 -86 105 -71 54 -99 62 -136 42z"/>
<path d="M3689 3071 c-39 -31 -31 -77 26 -152 26 -35 55 -70 63 -76 24 -19 69
-16 92 7 32 32 25 72 -26 144 -68 98 -106 117 -155 77z"/>
<path d="M3375 2905 c-14 -13 -25 -32 -25 -42 0 -33 52 -175 71 -194 41 -41
119 -10 119 47 0 47 -41 166 -65 190 -31 31 -69 30 -100 -1z"/>
<path d="M4509 5700 c-42 -22 -87 -73 -101 -112 -8 -23 -13 -26 -28 -18 -28
15 -107 12 -139 -5 -35 -18 -79 -69 -87 -101 -5 -21 -12 -24 -50 -24 -61 0
-102 -19 -146 -68 -39 -44 -67 -117 -50 -134 16 -16 29 -2 36 37 9 46 70 110
118 123 21 6 55 8 77 5 39 -5 40 -5 47 31 9 51 47 93 95 106 33 9 47 8 86 -10
26 -11 50 -17 53 -13 4 5 15 29 24 55 29 80 106 125 189 111 35 -5 39 -4 35
13 -5 28 -109 31 -159 4z"/>
<path d="M2300 1805 c-26 -31 0 -50 66 -50 59 0 59 0 59 30 0 29 -1 30 -56 33
-42 2 -59 -1 -69 -13z"/>
<path d="M2510 1805 c-18 -22 -1 -50 31 -50 20 0 24 5 24 30 0 23 -5 31 -21
33 -11 2 -27 -4 -34 -13z"/>
</g>
</svg>
