<?xml version="1.0" encoding="iso-8859-1"?>
<!-- https://icons8.com/icon/117004/clouds -->
<!-- Generator: Adobe Illustrator 22.1.0, SVG Export Plug-In . SVG Version: 6.00 Build 0)  -->
<svg xmlns="http://www.w3.org/2000/svg" xmlns:xlink="http://www.w3.org/1999/xlink" version="1.1" id="Layer_1" x="0px" y="0px" viewBox="0 0 100 100" style="enable-background:new 0 0 100 100;" xml:space="preserve" width="100px" height="100px">
<g>
    <!-- background: little lines left -->
	<g>
		<path style="fill:#FFFFFF;" d="M17.405,53H7.5C7.224,53,7,52.776,7,52.5S7.224,52,7.5,52h9.905c0.276,0,0.5,0.224,0.5,0.5    S17.682,53,17.405,53z"/>
	</g>
	<g>
		<path style="fill:#FFFFFF;" d="M20.5,53h-1c-0.276,0-0.5-0.224-0.5-0.5s0.224-0.5,0.5-0.5h1c0.276,0,0.5,0.224,0.5,0.5    S20.777,53,20.5,53z"/>
	</g>
	<g>
		<path style="fill:#FFFFFF;" d="M25.491,55H16.5c-0.276,0-0.5-0.224-0.5-0.5s0.224-0.5,0.5-0.5h8.991c0.276,0,0.5,0.224,0.5,0.5    S25.767,55,25.491,55z"/>
	</g>
	<g>
		<path style="fill:#FFFFFF;" d="M14.5,55h-1c-0.276,0-0.5-0.224-0.5-0.5s0.224-0.5,0.5-0.5h1c0.276,0,0.5,0.224,0.5,0.5    S14.777,55,14.5,55z"/>
	</g>
	<g>
		<path style="fill:#FFFFFF;" d="M11.5,55h-2C9.224,55,9,54.776,9,54.5S9.224,54,9.5,54h2c0.276,0,0.5,0.224,0.5,0.5    S11.777,55,11.5,55z"/>
	</g>
	<g>
		<path style="fill:#FFFFFF;" d="M17.5,57h-2c-0.276,0-0.5-0.224-0.5-0.5s0.224-0.5,0.5-0.5h2c0.276,0,0.5,0.224,0.5,0.5    S17.776,57,17.5,57z"/>
	</g>
	<g>
		<path style="fill:#FFFFFF;" d="M20.5,48c-0.177,0-0.823,0-1,0c-0.276,0-0.5,0.224-0.5,0.5c0,0.276,0.224,0.5,0.5,0.5    c0.177,0,0.823,0,1,0c0.276,0,0.5-0.224,0.5-0.5C21,48.224,20.776,48,20.5,48z"/>
	</g>
	<g>
		<path style="fill:#FFFFFF;" d="M20.5,50c-0.177,0-4.823,0-5,0c-0.276,0-0.5,0.224-0.5,0.5c0,0.276,0.224,0.5,0.5,0.5    c0.177,0,4.823,0,5,0c0.276,0,0.5-0.224,0.5-0.5C21,50.224,20.776,50,20.5,50z"/>
	</g>
	<g>
		<path style="fill:#FFFFFF;" d="M25.5,52c-0.177,0-2.823,0-3,0c-0.276,0-0.5,0.224-0.5,0.5c0,0.276,0.224,0.5,0.5,0.5    c0.177,0,2.823,0,3,0c0.276,0,0.5-0.224,0.5-0.5C26,52.224,25.776,52,25.5,52z"/>
	</g>
</g>
<g transform="translate(2, 0)">
<!-- big-middle cloud -->
	<g>
    <!-- big-middle cloud -->
		<g>
            <!-- big-middle cloud: fill -->
			<path style="fill:#FFFFFF;" d="M40.24,69.3c-4.268,0-7.739-3.499-7.739-7.801c0-4.301,3.472-7.8,7.739-7.8l0.147,0.007h0.588     l0.102-0.579c0.701-3.979,4.12-6.866,8.131-6.866c0.67,0,1.363,0.092,2.061,0.272l0.504,0.131l0.271-0.445     c2.004-3.301,5.479-5.271,9.298-5.271c5.308,0,9.821,3.823,10.732,9.092l0.087,0.503l0.505,0.071     c4.573,0.645,8.021,4.639,8.021,9.291c0,4.993-3.879,9.108-8.832,9.368L71.352,69.3H40.24z"/>
		</g>
		<g>
            <!-- big-middle cloud: outline -->
			<path style="fill:#472B29;" d="M61.341,41.648c4.966,0,9.189,3.58,10.042,8.512l0.174,1.005l1.01,0.143     c4.23,0.597,7.42,4.293,7.42,8.599c0,4.62-3.588,8.428-8.169,8.669L71.476,68.6H40.241c-3.882,0-7.04-3.186-7.04-7.101     s3.158-7.101,7.015-7.101c0.053,0.004,0.105,0.007,0.159,0.007l1.186,0.012l0.206-1.168c0.642-3.644,3.772-6.289,7.442-6.289     c0.611,0,1.245,0.084,1.884,0.25l1.008,0.261l0.54-0.89C54.517,43.493,57.769,41.648,61.341,41.648 M61.341,40.248     c-4.195,0-7.858,2.25-9.897,5.607c-0.716-0.186-1.462-0.294-2.236-0.294c-4.414,0-8.075,3.215-8.821,7.445     c-0.049,0-0.097-0.007-0.147-0.007c-4.661,0-8.44,3.806-8.44,8.5s3.779,8.5,8.44,8.5h31.651v-0.027     c5.289-0.278,9.495-4.672,9.495-10.067c0-5.096-3.753-9.298-8.625-9.985C71.812,44.428,67.067,40.248,61.341,40.248     L61.341,40.248z"/>
		</g>
	</g>
	<g>
        <!-- big-middle cloud: inner lines -->
		<path style="fill:#39C2D8;" d="M73.801,55.567c2.485,1.817,2.964,5.29,1.139,7.987"/>
		<path style="fill:#472B29;" d="M74.94,64.054c-0.097,0-0.194-0.027-0.28-0.086c-0.229-0.155-0.288-0.466-0.134-0.694    c1.692-2.5,1.254-5.64-1.02-7.303c-0.223-0.163-0.271-0.476-0.108-0.698c0.163-0.224,0.478-0.271,0.698-0.108    c2.673,1.954,3.226,5.763,1.258,8.67C75.258,63.977,75.101,64.054,74.94,64.054z"/>
	</g>
	<g>
        <!-- big-middle cloud: inner lines -->
		<path style="fill:#39C2D8;" d="M67.847,49.717c0.539,1.313,0.846,2.875,0.833,4.663c1.037-0.098,1.971-0.037,2.797,0.152"/>
		<path style="fill:#472B29;" d="M71.478,55.032c-0.036,0-0.074-0.004-0.111-0.013c-0.804-0.183-1.691-0.229-2.639-0.142    c-0.142,0.007-0.28-0.035-0.385-0.13s-0.163-0.23-0.162-0.372c0.012-1.65-0.256-3.154-0.796-4.47    c-0.104-0.255,0.018-0.547,0.273-0.652c0.253-0.103,0.547,0.019,0.652,0.273c0.53,1.292,0.82,2.742,0.864,4.317    c0.854-0.034,1.663,0.029,2.414,0.2c0.27,0.062,0.438,0.329,0.376,0.599C71.912,54.875,71.706,55.032,71.478,55.032z"/>
	</g>
	<g>
        <!-- big-middle cloud: inner lines -->
		<path style="fill:#FFC2D8;" d="M63.931,45.464c1.15,0.521,2.185,1.379,2.994,2.545"/>
		<path style="fill:#472B29;" d="M66.925,48.51c-0.158,0-0.314-0.075-0.411-0.216c-0.732-1.058-1.697-1.88-2.789-2.375    c-0.251-0.114-0.362-0.41-0.248-0.662c0.113-0.251,0.412-0.359,0.662-0.248c1.256,0.57,2.362,1.509,3.197,2.717    c0.157,0.227,0.101,0.538-0.127,0.695C67.122,48.481,67.023,48.51,66.925,48.51z"/>
	</g>
	<g>
        <!-- big-middle cloud: inner lines -->
		<path style="fill:#39C2D8;" d="M56.78,46.446c1.658-1.269,3.525-1.747,5.281-1.517"/>
		<path style="fill:#472B29;" d="M56.779,46.946c-0.15,0-0.299-0.067-0.397-0.196c-0.167-0.219-0.126-0.533,0.094-0.701    c1.695-1.296,3.702-1.863,5.65-1.615c0.273,0.036,0.466,0.287,0.431,0.562c-0.036,0.273-0.296,0.463-0.562,0.431    c-1.683-0.219-3.428,0.282-4.912,1.418C56.992,46.913,56.886,46.946,56.779,46.946z"/>
	</g>
	<g>
        <!-- big-middle cloud: inner lines -->
		<path style="fill:#39C2D8;" d="M37.217,59.315c0.697-1.138,1.953-1.898,3.385-1.898"/>
		<path style="fill:#472B29;" d="M37.217,59.815c-0.09,0-0.18-0.023-0.261-0.073c-0.236-0.145-0.31-0.452-0.166-0.688    c0.82-1.339,2.244-2.138,3.812-2.138c0.276,0,0.5,0.224,0.5,0.5s-0.224,0.5-0.5,0.5c-1.216,0-2.322,0.62-2.958,1.659    C37.549,59.73,37.385,59.815,37.217,59.815z"/>
	</g>
	<g>
		<path style="fill:#39C2D8;" d="M40.602,65.351c-2.191,0-3.967-1.776-3.967-3.967"/>
		<path style="fill:#472B29;" d="M40.602,65.852c-2.463,0-4.467-2.004-4.467-4.467c0-0.276,0.224-0.5,0.5-0.5s0.5,0.224,0.5,0.5    c0,1.911,1.556,3.467,3.467,3.467c0.276,0,0.5,0.224,0.5,0.5S40.878,65.852,40.602,65.852z"/>
	</g>
</g>
<g transform="translate(12, 12)">
    <!-- https://icons8.com/icon/115336/gear -->
    <!-- Generator: Adobe Illustrator 22.1.0, SVG Export Plug-In . SVG Version: 6.00 Build 0)  -->
    <!-- Outer gear: main color -->
    <path style="fill:#C2CDE7;" d="M61,29.56v4.88c0,0.91-0.63,1.71-1.51,1.93l-5.19,1.29c-0.55,2.17-1.41,4.21-2.52,6.08l2.75,4.6  c0.48,0.79,0.36,1.79-0.3,2.44l-3.45,3.45c-0.37,0.38-0.88,0.59-1.41,0.59c-0.36,0-0.72-0.1-1.03-0.29l-4.6-2.75  c-1.86,1.11-3.9,1.96-6.06,2.51l-1.3,5.2C36.16,60.38,35.36,61,34.44,61h-4.89c-0.92,0-1.72-0.62-1.94-1.51l-1.21-4.86l-0.09-0.34  c-2.15-0.55-4.19-1.4-6.05-2.51l-4.6,2.75c-0.31,0.19-0.67,0.29-1.03,0.29c-0.53,0-1.04-0.21-1.41-0.59l-2.72-2.72l-0.73-0.73  c-0.66-0.65-0.78-1.65-0.3-2.45l2.69-4.49l0.06-0.1c-0.5-0.83-0.94-1.7-1.32-2.6c-0.49-1.11-0.89-2.27-1.19-3.46L9.39,37.6  l-4.88-1.22C3.62,36.16,3,35.36,3,34.44v-4.88c0-0.91,0.63-1.71,1.51-1.93l5.19-1.29c0.55-2.17,1.41-4.21,2.52-6.08l-2.75-4.6  c-0.48-0.79-0.36-1.79,0.3-2.44l3.46-3.45c0.37-0.38,0.88-0.59,1.41-0.59c0.36,0,0.72,0.1,1.03,0.29l4.59,2.75  c1.86-1.11,3.9-1.96,6.06-2.51l1.3-5.2C27.84,3.62,28.64,3,29.56,3h4.89c0.92,0,1.72,0.62,1.94,1.51l1.21,4.85l0.09,0.35  c1.18,0.3,2.33,0.69,3.43,1.18c0.91,0.38,1.78,0.83,2.62,1.33l0.1-0.06l4.5-2.69c0.31-0.19,0.67-0.29,1.03-0.29  c0.53,0,1.04,0.21,1.41,0.59l0.73,0.72l2.72,2.72c0.66,0.65,0.78,1.65,0.3,2.45l-2.75,4.6c1.11,1.86,1.96,3.9,2.51,6.06l0.31,0.08  l4.89,1.22C60.38,27.84,61,28.64,61,29.56z"/>
    <!-- Inner gear: fill color -->
    <circle style="fill:#ACB7D0;" cx="32" cy="32" r="17"/>
    <!-- Inner gear: holes -->
    <path style="fill:#FF2A60;" d="M35,28.023c1.052,0.795,1.768,1.99,1.938,3.364l6.615,3.819v0C43.837,34.184,44,33.112,44,32  c0-5.59-3.827-10.273-9-11.607V28.023z"/>
    <path style="fill:#FF2A60;" d="M40.549,40.4l-6.585-3.802C33.36,36.856,32.697,37,32,37s-1.36-0.144-1.963-0.402L23.451,40.4  c-0.009-0.01-0.026-0.015-0.036-0.024C25.594,42.609,28.633,44,32,44c3.365,0,6.402-1.389,8.581-3.62  C40.572,40.387,40.556,40.392,40.549,40.4z"/>
    <path style="fill:#FF2A60;" d="M20.446,35.206l6.615-3.819c0.17-1.375,0.886-2.569,1.938-3.364v-7.629C23.827,21.727,20,26.41,20,32  C20,33.112,20.163,34.184,20.446,35.206C20.446,35.206,20.446,35.206,20.446,35.206z"/>
    <!-- Outer gear: outline -->
    <path style="fill:#000000;" d="M34.44,62h-4.89c-1.378,0-2.574-0.933-2.909-2.269l-1.154-4.628c-1.813-0.51-3.565-1.237-5.221-2.168  L16.17,55.39c-1.159,0.692-2.711,0.497-3.66-0.449L9.06,51.489c-0.978-0.977-1.162-2.486-0.449-3.671l2.452-4.087  c-0.93-1.654-1.657-3.405-2.167-5.22L4.27,37.35C2.934,37.015,2,35.818,2,34.44v-4.877c0.004-1.376,0.937-2.569,2.268-2.903  l4.623-1.152c0.511-1.821,1.239-3.578,2.17-5.236l-2.452-4.094c-0.712-1.181-0.527-2.689,0.45-3.667l3.461-3.451  c0.951-0.949,2.507-1.141,3.659-0.449l4.088,2.453c1.654-0.93,3.405-1.657,5.221-2.167l1.162-4.626C26.985,2.934,28.182,2,29.56,2  h4.89c1.378,0,2.574,0.933,2.909,2.269l1.154,4.628c1.815,0.511,3.566,1.238,5.22,2.167L47.83,8.61  c1.157-0.692,2.71-0.497,3.66,0.45l3.449,3.438c0.979,0.978,1.163,2.488,0.449,3.673l-2.453,4.095  c0.93,1.654,1.657,3.405,2.168,5.222l4.626,1.162C61.066,26.985,62,28.182,62,29.56v4.877c-0.004,1.376-0.937,2.569-2.268,2.903  l-4.623,1.152c-0.512,1.821-1.24,3.578-2.17,5.236l2.452,4.094c0.712,1.181,0.527,2.69-0.451,3.668l-3.449,3.449  c-0.952,0.95-2.504,1.143-3.66,0.451l-4.097-2.455c-1.657,0.931-3.408,1.658-5.223,2.168l-1.162,4.626  C37.015,61.066,35.818,62,34.44,62z M20.257,50.775c0.177,0,0.354,0.047,0.511,0.141c1.816,1.081,3.765,1.89,5.792,2.405  c0.357,0.09,0.635,0.369,0.724,0.727l1.296,5.198C28.692,59.689,29.09,60,29.55,60h4.89c0.459,0,0.858-0.312,0.97-0.757l1.305-5.196  c0.089-0.357,0.367-0.636,0.724-0.727c2.027-0.515,3.977-1.323,5.793-2.404c0.315-0.188,0.71-0.187,1.025,0.002l4.601,2.757  c0.385,0.23,0.903,0.165,1.22-0.15l3.448-3.448c0.326-0.326,0.389-0.83,0.151-1.224l-2.756-4.602  c-0.189-0.315-0.189-0.709-0.001-1.024c1.081-1.817,1.89-3.771,2.407-5.809c0.09-0.356,0.37-0.635,0.728-0.725l5.193-1.294  c0.441-0.11,0.752-0.508,0.753-0.966V29.56c0-0.459-0.311-0.857-0.756-0.97c0,0,0,0,0,0l-5.196-1.305  c-0.356-0.089-0.635-0.367-0.726-0.724c-0.516-2.03-1.325-3.979-2.405-5.792c-0.188-0.316-0.188-0.71,0.001-1.025l2.756-4.602  c0.24-0.398,0.178-0.902-0.148-1.229l-3.448-3.438c-0.317-0.315-0.833-0.384-1.222-0.15l-4.6,2.755  c-0.315,0.188-0.708,0.19-1.025,0.002c-1.814-1.079-3.764-1.888-5.792-2.404c-0.356-0.091-0.635-0.37-0.724-0.727l-1.296-5.198  C35.308,4.311,34.91,4,34.45,4h-4.89c-0.459,0-0.858,0.312-0.97,0.757l-1.305,5.196c-0.089,0.356-0.367,0.636-0.724,0.726  c-2.029,0.516-3.978,1.324-5.791,2.404c-0.317,0.188-0.71,0.187-1.026-0.002l-4.593-2.756c-0.383-0.23-0.902-0.165-1.219,0.15  l-3.46,3.45c-0.325,0.325-0.387,0.828-0.149,1.222l2.756,4.602c0.189,0.315,0.189,0.709,0.001,1.024  c-1.081,1.818-1.891,3.772-2.407,5.809c-0.09,0.356-0.37,0.635-0.728,0.725l-5.193,1.294C4.312,28.711,4.001,29.108,4,29.566v4.874  c0,0.459,0.311,0.857,0.756,0.97l5.197,1.305c0.356,0.089,0.635,0.367,0.726,0.724c0.516,2.028,1.324,3.977,2.404,5.791  c0.188,0.316,0.188,0.711-0.002,1.026l-2.756,4.594c-0.239,0.396-0.177,0.899,0.149,1.226l3.451,3.45  c0.314,0.313,0.83,0.381,1.219,0.148l4.6-2.756C19.901,50.823,20.08,50.775,20.257,50.775z"/>
    <!-- Inner gear: tick marks-->
    <path style="fill:#000000;" d="M50,33h-2c-0.552,0-1-0.447-1-1s0.448-1,1-1h2c0.552,0,1,0.447,1,1S50.552,33,50,33z"/>
    <path style="fill:#000000;" d="M49.119,38.563c-0.102,0-0.207-0.016-0.309-0.049l-1.902-0.618c-0.525-0.171-0.813-0.735-0.642-1.26  c0.17-0.525,0.734-0.813,1.26-0.643l1.902,0.618c0.525,0.171,0.813,0.735,0.642,1.26C49.933,38.294,49.541,38.563,49.119,38.563z"/>
    <path style="fill:#000000;" d="M46.562,43.58c-0.204,0-0.409-0.063-0.587-0.191l-1.618-1.176c-0.447-0.324-0.546-0.949-0.221-1.396  c0.325-0.446,0.949-0.545,1.397-0.221l1.618,1.176c0.447,0.324,0.546,0.949,0.221,1.396C47.176,43.438,46.871,43.58,46.562,43.58z"/>
    <path style="fill:#000000;" d="M42.581,47.563c-0.31,0-0.614-0.143-0.81-0.412l-1.175-1.618c-0.325-0.447-0.226-1.072,0.221-1.397  c0.448-0.322,1.073-0.226,1.397,0.222l1.175,1.618c0.325,0.447,0.226,1.072-0.221,1.397C42.99,47.5,42.785,47.563,42.581,47.563z"/>
    <path style="fill:#000000;" d="M37.563,50.119c-0.422,0-0.814-0.269-0.951-0.691l-0.618-1.902c-0.17-0.524,0.117-1.089,0.642-1.26  c0.528-0.169,1.09,0.117,1.26,0.643l0.618,1.902c0.17,0.524-0.117,1.089-0.642,1.26C37.769,50.104,37.665,50.119,37.563,50.119z"/>
    <path style="fill:#000000;" d="M47.217,28.056c-0.422,0-0.814-0.269-0.951-0.691c-0.17-0.524,0.117-1.089,0.642-1.26l1.902-0.618  c0.526-0.169,1.09,0.117,1.26,0.643c0.17,0.524-0.117,1.089-0.642,1.26l-1.902,0.618C47.423,28.04,47.319,28.056,47.217,28.056z"/>
    <path style="fill:#000000;" d="M44.945,23.596c-0.31,0-0.614-0.143-0.81-0.412c-0.325-0.447-0.226-1.072,0.221-1.396l1.618-1.176  c0.448-0.325,1.073-0.227,1.397,0.221c0.325,0.447,0.226,1.072-0.221,1.396l-1.618,1.176C45.354,23.533,45.149,23.596,44.945,23.596  z"/>
    <path style="fill:#000000;" d="M41.404,20.056c-0.204,0-0.409-0.062-0.587-0.19c-0.447-0.325-0.546-0.95-0.221-1.397l1.175-1.618  c0.325-0.446,0.95-0.547,1.397-0.222c0.447,0.325,0.546,0.95,0.221,1.397l-1.175,1.618C42.018,19.913,41.713,20.056,41.404,20.056z"/>
    <path style="fill:#000000;" d="M36.944,17.783c-0.102,0-0.207-0.016-0.309-0.049c-0.525-0.171-0.813-0.735-0.642-1.26l0.618-1.902  c0.17-0.525,0.735-0.812,1.26-0.643c0.525,0.171,0.813,0.735,0.642,1.26l-0.618,1.902C37.758,17.515,37.366,17.783,36.944,17.783z"/>
    <!-- Inner gear: big arc -->
    <path style="fill:#000000;" d="M32,50c-9.925,0-18-8.075-18-18c0-5.715,2.771-11.147,7.411-14.534  c0.446-0.326,1.072-0.227,1.397,0.218c0.326,0.446,0.228,1.072-0.218,1.397C18.463,22.093,16,26.922,16,32c0,8.822,7.178,16,16,16  c0.552,0,1,0.447,1,1S32.552,50,32,50z"/>
    <!-- Inner gear: little arc -->
    <path style="fill:#000000;" d="M27,16.75c-0.427,0-0.823-0.276-0.955-0.706c-0.163-0.527,0.134-1.087,0.662-1.25  C28.419,14.268,30.2,14,32,14c0.552,0,1,0.447,1,1s-0.448,1-1,1c-1.6,0-3.184,0.237-4.706,0.706  C27.196,16.736,27.097,16.75,27,16.75z"/>
    <!-- Inner gear: hole outlines -->
    <path style="fill:#000000;" d="M43.554,36.206c-0.173,0-0.346-0.045-0.5-0.134l-6.615-3.819c-0.271-0.157-0.454-0.432-0.492-0.743  c-0.134-1.081-0.685-2.036-1.549-2.689C34.147,28.632,34,28.336,34,28.022v-7.629c0-0.31,0.143-0.601,0.388-0.79  c0.244-0.19,0.565-0.254,0.862-0.179C40.991,20.905,45,26.076,45,32c0,1.149-0.163,2.318-0.482,3.474  c-0.083,0.298-0.299,0.541-0.585,0.658C43.811,36.182,43.682,36.206,43.554,36.206z M37.846,30.756l5.022,2.9  C42.956,33.101,43,32.547,43,32c0-4.569-2.82-8.609-7-10.235v5.787C36.945,28.399,37.585,29.511,37.846,30.756z"/>
    <path style="fill:#000000;" d="M32,45c-3.527,0-6.831-1.395-9.301-3.926c-0.371-0.38-0.38-0.982-0.021-1.374  c0.137-0.149,0.311-0.249,0.495-0.295l6.364-3.674c0.273-0.157,0.604-0.178,0.893-0.054c0.999,0.428,2.142,0.428,3.141,0  c0.289-0.124,0.619-0.104,0.893,0.054l6.379,3.684c0.181,0.049,0.35,0.149,0.484,0.299c0.351,0.392,0.337,0.988-0.03,1.364  C38.828,43.607,35.526,45,32,45z M25.129,40.586C27.074,42.151,29.469,43,32,43c2.532,0,4.927-0.849,6.871-2.414L33.873,37.7  c-1.207,0.398-2.538,0.398-3.745,0L25.129,40.586z M23.415,40.376h0.01H23.415z"/>
    <path style="fill:#000000;" d="M20.446,36.206c-0.128,0-0.257-0.024-0.379-0.074c-0.286-0.117-0.502-0.36-0.585-0.658  C19.163,34.318,19,33.149,19,32c0-5.924,4.009-11.095,9.75-12.575c0.297-0.076,0.618-0.012,0.862,0.179  c0.245,0.189,0.388,0.48,0.388,0.79v7.629c0,0.313-0.147,0.609-0.397,0.798c-0.864,0.653-1.415,1.608-1.549,2.689  c-0.039,0.312-0.221,0.586-0.492,0.743l-6.615,3.819C20.792,36.161,20.62,36.206,20.446,36.206z M28,21.765  c-4.18,1.626-7,5.666-7,10.235c0,0.547,0.044,1.101,0.131,1.656l5.022-2.9c0.261-1.245,0.901-2.356,1.846-3.204V21.765z"/>
    <!-- Outer gear: center circle -->
    <circle style="fill:#000000;" cx="32" cy="32" r="2"/>
    <animateTransform attributeName="transform"
                      attributeType="XML"
                      type="rotate"
                      from="0 32 32"
                      to="360 32 32"
                      dur="60s"
                      repeatCount="indefinite"
                      additive="sum"/>
</g>
<g transform="translate(-5 -15)">
<!-- top-right cloud -->
	<g>
        <!-- top-right cloud: fill -->
		<path style="fill:#FDFCEF;" d="M79,43h5.75c2.485,0.75,4.5-1.265,4.5-3.75c0-2.333-1.782-4.229-4.055-4.455    c0.022-0.181,0.055-0.358,0.055-0.545c0-2.485-2.015-4.5-4.5-4.5c-1.438,0-2.703,0.686-3.527,1.736    c-0.14-2.636-2.302-4.736-4.973-4.736c-2.761,0-5,2.239-5,5c0,0.446,0.077,0.87,0.187,1.282c-0.642-0.777-1.6-1.282-2.687-1.282    c-1.781,0-3.234,1.335-3.455,3.055c-0.181-0.022-0.358-0.055-0.545-0.055c-2.485,0-4.5,2.015-4.5,4.5s2.015,4.5,4.5,3.75h9.5H76v1    h3V43z"/>
	</g>
	<g>
        <!-- top-right cloud: outline -->
		<path style="fill:#472B29;" d="M72.5,26c-3.033,0-5.5,2.467-5.5,5.5c0,0.016,0,0.031,0,0.047C66.398,31.192,65.71,31,65,31    c-1.831,0-3.411,1.261-3.858,3.005C61.095,34.002,61.048,34,61,34c-3.099,0-5.549,2.834-4.893,6.047    C56.587,42.398,58.796,44,61.196,44l14.679,0c0.276,0,0.5-0.224,0.5-0.5s-0.224-0.5-0.5-0.5l-14.718,0    c-1.92,0-3.687-1.282-4.071-3.163C56.561,37.267,58.521,35,61,35c0.117,0,0.23,0.017,0.343,0.032l0.141,0.019    c0.021,0.003,0.041,0.004,0.062,0.004c0.246,0,0.462-0.185,0.495-0.437C62.232,33.125,63.504,32,65,32    c0.885,0,1.723,0.401,2.301,1.1c0.098,0.118,0.241,0.182,0.386,0.182c0.078,0,0.156-0.018,0.228-0.056    c0.209-0.107,0.314-0.346,0.254-0.573c-0.16-0.6-0.202-1.069-0.147-1.549c0.24-2.127,1.959-3.909,4.092-4.088    c2.551-0.215,4.725,1.728,4.859,4.246c0.011,0.208,0.15,0.387,0.349,0.45c0.05,0.016,0.101,0.024,0.152,0.024    c0.15,0,0.296-0.069,0.392-0.192C78.638,30.563,79.779,30,81,30c2.206,0,4,1.794,4,4c0,0.117-0.017,0.23-0.032,0.343l-0.019,0.141    c-0.016,0.134,0.022,0.268,0.106,0.373c0.084,0.105,0.207,0.172,0.34,0.185c2.352,0.234,4.042,2.429,3.504,4.865    C88.491,41.76,86.725,43,84.827,43l-5.952,0c-0.276,0-0.5,0.224-0.5,0.5s0.224,0.5,0.5,0.5l5.938,0    c2.467,0,4.708-1.704,5.115-4.138c0.462-2.763-1.344-5.22-3.931-5.74C85.999,34.082,86,34.041,86,34c0-2.757-2.243-5-5-5    c-1.176,0-2.293,0.416-3.183,1.164C77.219,27.76,75.055,26,72.5,26L72.5,26z"/>
	</g>
	<g>
        <!-- top-right cloud: inner lines -->
		<path style="fill:#472B29;" d="M70.75,33.25c-1.403,0-2.609,0.999-2.913,2.341c-0.367-0.222-0.786-0.341-1.212-0.341    c-1.202,0-2.198,0.897-2.353,2.068c-0.203-0.045-0.396-0.068-0.585-0.068c-1.529,0-2.811,1.2-2.918,2.732    c-0.009,0.138,0.094,0.257,0.232,0.267c0.006,0,0.012,0,0.018,0c0.13,0,0.24-0.101,0.249-0.232    c0.089-1.271,1.151-2.268,2.419-2.268c0.229,0,0.47,0.042,0.738,0.127c0.022,0.007,0.045,0.01,0.067,0.01    c0.055,0,0.11-0.02,0.156-0.054c0.064-0.047,0.102-0.129,0.102-0.209c0-1.034,0.841-1.875,1.875-1.875    c0.447,0,0.885,0.168,1.231,0.473c0.047,0.041,0.106,0.063,0.165,0.063c0.032,0,0.063-0.006,0.093-0.019    c0.088-0.035,0.148-0.117,0.155-0.212c0.102-1.292,1.191-2.305,2.479-2.305c0.208,0,0.425,0.034,0.682,0.107    c0.023,0.007,0.047,0.01,0.07,0.01c0.109,0,0.207-0.073,0.239-0.182c0.038-0.133-0.039-0.271-0.172-0.309    C71.267,33.29,71.006,33.25,70.75,33.25L70.75,33.25z"/>
	</g>
	<g>
		<path style="fill:#472B29;" d="M84.633,34.75c-1.326,0-2.508,0.897-2.874,2.182c-0.038,0.133,0.039,0.271,0.172,0.309    c0.023,0.007,0.046,0.01,0.068,0.01c0.109,0,0.209-0.072,0.24-0.182c0.305-1.071,1.289-1.818,2.393-1.818    c0.117,0,0.23,0.014,0.342,0.029c0.012,0.002,0.023,0.003,0.035,0.003c0.121,0,0.229-0.092,0.246-0.217    c0.019-0.137-0.077-0.263-0.214-0.281C84.908,34.766,84.772,34.75,84.633,34.75L84.633,34.75z"/>
	</g>
</g>
<g>
<!-- bottom-left cloud -->
	<g>
        <!-- bottom-left cloud: fill -->
		<path style="fill:#FDFCEF;" d="M31.25,74.5c0,0-1.567,0-3.5,0s-3.5-1.567-3.5-3.5c0-1.781,1.335-3.234,3.055-3.455    C27.277,67.366,27.25,67.187,27.25,67c0-1.933,1.567-3.5,3.5-3.5c1.032,0,1.95,0.455,2.59,1.165    c0.384-1.808,1.987-3.165,3.91-3.165c2.209,0,4,1.791,4,4c0,0.191-0.03,0.374-0.056,0.558c0.428-0.344,0.965-0.558,1.556-0.558    c1.228,0,2.245,0.887,2.455,2.055c0.179-0.028,0.358-0.055,0.545-0.055c1.933,0,3.5,1.567,3.5,3.5s-1.567,3.5-3.5,3.5    s-7.5,0-7.5,0V75h-7V74.5z"/>
	</g>
	<g>
		<path style="fill:#472B29;" d="M29.5,70c0.138,0,0.25-0.112,0.25-0.25c0-1.223-0.995-2.218-2.218-2.218    c-0.034,0.009-0.737-0.001-1.244,0.136c-0.133,0.036-0.212,0.173-0.176,0.306c0.036,0.134,0.173,0.213,0.306,0.176    c0.444-0.12,1.1-0.12,1.113-0.118c0.948,0,1.719,0.771,1.719,1.718C29.25,69.888,29.362,70,29.5,70z"/>
	</g>
	<g>
		<circle style="fill:#472B29;" cx="36.25" cy="74.5" r="0.5"/>
	</g>
	<g>
        <!-- bottom-left cloud: outline -->
		<path style="fill:#472B29;" d="M27.75,75h3.5c0.276,0,0.5-0.224,0.5-0.5s-0.224-0.5-0.5-0.5h-3.5c-1.654,0-3-1.346-3-3    c0-1.496,1.125-2.768,2.618-2.959c0.134-0.018,0.255-0.088,0.336-0.196s0.115-0.244,0.094-0.377    C27.775,67.314,27.75,67.16,27.75,67c0-1.654,1.346-3,3-3c0.85,0,1.638,0.355,2.219,1c0.125,0.139,0.321,0.198,0.5,0.148    c0.182-0.049,0.321-0.195,0.36-0.379C34.17,63.165,35.609,62,37.25,62c1.93,0,3.5,1.57,3.5,3.5c0,0.143-0.021,0.28-0.041,0.418    c-0.029,0.203,0.063,0.438,0.242,0.54c0.179,0.102,0.396,0.118,0.556-0.01C41.872,66.155,42.301,66,42.75,66    c0.966,0,1.792,0.691,1.963,1.644c0.048,0.267,0.296,0.446,0.569,0.405C45.436,68.025,45.59,68,45.75,68c1.654,0,3,1.346,3,3    s-1.346,3-3,3h-7.5c-0.276,0-0.5,0.224-0.5,0.5s0.224,0.5,0.5,0.5h7.5c2.206,0,4-1.794,4-4s-1.794-4-4-4    c-0.059,0-0.116,0.002-0.174,0.006C45.162,65.82,44.039,65,42.75,65c-0.349,0-0.689,0.061-1.011,0.18    C41.574,62.847,39.624,61,37.25,61c-1.831,0-3.466,1.127-4.153,2.774C32.417,63.276,31.595,63,30.75,63c-2.206,0-4,1.794-4,4    c0,0.048,0.001,0.095,0.004,0.142C25.011,67.59,23.75,69.169,23.75,71C23.75,73.206,25.544,75,27.75,75z"/>
	</g>
	<g>
		<path style="fill:#472B29;" d="M33.25,74c0.159,0,0.841,0,1,0c0.276,0,0.5,0.224,0.5,0.5c0,0.276-0.224,0.5-0.5,0.5    c-0.159,0-0.841,0-1,0c-0.276,0-0.5-0.224-0.5-0.5C32.75,74.224,32.974,74,33.25,74z"/>
	</g>
</g>
</svg>
