<svg xmlns="http://www.w3.org/2000/svg" xmlns:xlink="http://www.w3.org/1999/xlink" viewBox="0 0 64 64" version="1.1" width="100" height="100" fill="000000">
<g id="surface1">
<path style=" fill:#72CAAF;" d="M 11 5 L 61 5 L 61 39 L 11 39 Z "/>
<path style=" fill:#84D5B5;" d="M 60 19.570313 L 40.570313 39 L 58.785156 39 L 60 37.785156 Z "/>
<path style=" fill:#84D5B5;" d="M 60 7.429688 L 28.429688 39 L 35.714844 39 L 60 14.714844 Z "/>
<path style=" fill:#FAEFDE;" d="M 43 30 C 43 28.894531 41.878906 28 40.5 28 C 39.121094 28 38 28.894531 38 30 C 38 31.105469 39.121094 32 40.5 32 C 41.878906 32 43 31.105469 43 30 Z "/>
<path style=" fill:#FAEFDE;" d="M 53 28 C 53 26.894531 51.878906 26 50.5 26 C 49.121094 26 48 26.894531 48 28 C 48 29.105469 49.121094 30 50.5 30 C 51.878906 30 53 29.105469 53 28 Z "/>
<path style=" fill:#84D5B5;" d="M 51.5 5 L 17.5 39 L 23.570313 39 L 57.570313 5 Z "/>
<path style=" fill:#CDA1A7;" d="M 61 45 L 11 45 C 9.894531 45 9 44.105469 9 43 L 9 41 C 9 39.894531 9.894531 39 11 39 L 61 39 C 62.105469 39 63 39.894531 63 41 L 63 43 C 63 44.105469 62.105469 45 61 45 Z "/>
<path style=" fill:#FAEFDE;" d="M 16 14 C 16 16.761719 13.761719 19 11 19 C 8.238281 19 6 16.761719 6 14 C 6 11.238281 8.238281 9 11 9 C 13.761719 9 16 11.238281 16 14 Z "/>
<path style=" fill:#85CBF8;" d="M 18 41 L 18 29.625 L 20.464844 31.289063 C 22.117188 32.402344 24.066406 33 26.058594 33 L 30.5 33 C 31.882813 33 33 31.882813 33 30.5 C 33 29.117188 31.882813 28 30.5 28 L 27.519531 28 C 26.464844 28 25.4375 27.667969 24.585938 27.050781 L 20.425781 24.035156 C 19.484375 23.351563 18.425781 22.835938 17.304688 22.515625 L 15.933594 22.125 C 13.363281 21.390625 10.640625 21.390625 8.070313 22.125 L 8.066406 22.125 C 6.070313 22.695313 4.304688 23.871094 3.007813 25.492188 C 1.707031 27.113281 1 29.132813 1 31.210938 L 1 40.5 C 1 41.882813 2.117188 43 3.5 43 C 4.882813 43 6 41.882813 6 40.5 L 6 29.667969 L 6 41 L 5.144531 59.863281 C 5.066406 61.570313 6.429688 63 8.140625 63 L 8.144531 63 C 9.746094 63 11.0625 61.746094 11.140625 60.148438 L 12 43 L 12.855469 60.148438 C 12.9375 61.746094 14.253906 63 15.851563 63 L 15.859375 63 C 17.570313 63 18.933594 61.570313 18.855469 59.863281 Z "/>
<path style=" fill:#8D6C9F;" d="M 62 38.230469 L 62 7.058594 C 62 5.398438 60.648438 4.058594 59 4.058594 L 13 4.058594 C 11.351563 4.058594 10 5.398438 10 7.058594 L 10 8.089844 C 7.160156 8.558594 5 11.03125 5 14 C 5 16.96875 7.160156 19.441406 10 19.910156 L 10 20.710938 C 9.25 20.800781 8.511719 20.949219 7.789063 21.160156 C 5.589844 21.789063 3.660156 23.070313 2.230469 24.871094 C 0.789063 26.660156 0 28.921875 0 31.210938 L 0 40.5 C 0 42.429688 1.570313 44 3.5 44 C 3.988281 44 4.449219 43.898438 4.878906 43.71875 L 4.140625 59.820313 C 4.089844 60.921875 4.488281 61.96875 5.25 62.761719 C 6.011719 63.558594 7.039063 64 8.148438 64 C 9.980469 64 11.53125 62.769531 12 61.078125 C 12.46875 62.769531 14.019531 64 15.851563 64 L 15.859375 64 C 16.960938 64 17.988281 63.558594 18.75 62.761719 C 19.511719 61.96875 19.910156 60.921875 19.859375 59.820313 L 19.230469 46.058594 L 61 46.058594 C 62.648438 46.058594 64 44.710938 64 43.058594 L 64 41.058594 C 64 39.75 63.160156 38.640625 62 38.230469 Z M 7 14 C 7 12.140625 8.269531 10.570313 10 10.128906 C 10.320313 10.039063 10.648438 10 11 10 C 11.351563 10 11.679688 10.039063 12 10.128906 C 13.730469 10.570313 15 12.140625 15 14 C 15 15.859375 13.730469 17.429688 12 17.871094 C 11.679688 17.960938 11.351563 18 11 18 C 10.648438 18 10.320313 17.960938 10 17.871094 C 8.269531 17.429688 7 15.859375 7 14 Z M 17.859375 59.910156 C 17.878906 60.460938 17.691406 60.980469 17.308594 61.378906 C 16.929688 61.78125 16.410156 62 15.859375 62 L 15.851563 62 C 14.789063 62 13.910156 61.171875 13.859375 60.101563 L 13.160156 46.058594 L 13.058594 44.058594 L 13 42.949219 C 12.96875 42.421875 12.53125 42 12 42 C 11.46875 42 11.03125 42.421875 11 42.949219 L 10.941406 44.050781 L 10.839844 46.050781 L 10.140625 60.101563 C 10.089844 61.171875 9.210938 62 8.140625 62 C 7.589844 62 7.070313 61.78125 6.691406 61.378906 C 6.308594 60.980469 6.121094 60.460938 6.140625 59.910156 L 7 41 L 7 29.671875 C 7 29.109375 6.550781 28.671875 6 28.671875 C 5.449219 28.671875 5 29.109375 5 29.671875 L 5 40.5 C 5 41.328125 4.328125 42 3.5 42 C 2.671875 42 2 41.328125 2 40.5 L 2 31.210938 C 2 29.371094 2.628906 27.558594 3.789063 26.121094 C 4.960938 24.648438 6.539063 23.601563 8.339844 23.078125 C 8.890625 22.921875 9.441406 22.808594 10 22.730469 C 10.660156 22.628906 11.328125 22.578125 12 22.578125 C 13.238281 22.578125 14.46875 22.738281 15.660156 23.078125 L 17.03125 23.480469 C 18.039063 23.769531 18.988281 24.230469 19.839844 24.839844 L 24 27.859375 C 25.03125 28.601563 26.25 29 27.519531 29 L 30.5 29 C 31.328125 29 32 29.671875 32 30.5 C 32 31.328125 31.328125 32 30.5 32 L 26.058594 32 C 24.261719 32 22.519531 31.46875 21.019531 30.460938 L 18.558594 28.800781 C 18.25 28.589844 17.859375 28.570313 17.53125 28.738281 C 17.199219 28.921875 17 29.261719 17 29.621094 L 17 41.050781 L 17.140625 44.058594 L 17.230469 46.058594 Z M 62 43.058594 C 62 43.609375 61.550781 44.058594 61 44.058594 L 19.140625 44.058594 L 19 41 L 19 31.511719 L 19.910156 32.121094 C 21.730469 33.351563 23.859375 34 26.058594 34 L 30.5 34 C 32.429688 34 34 32.429688 34 30.5 C 34 28.570313 32.429688 27 30.5 27 L 27.519531 27 C 26.671875 27 25.859375 26.738281 25.171875 26.238281 L 21.011719 23.21875 C 19.96875 22.46875 18.820313 21.910156 17.578125 21.550781 L 16.210938 21.160156 C 14.839844 20.769531 13.421875 20.578125 12 20.578125 L 12 19.910156 C 14.839844 19.441406 17 16.96875 17 14 C 17 13.238281 16.855469 12.511719 16.59375 11.839844 C 16.835938 11.65625 17 11.382813 17 11.058594 L 17 9.058594 C 17 8.503906 16.554688 8.058594 16 8.058594 C 15.445313 8.058594 15 8.503906 15 9.058594 L 15 9.550781 C 14.171875 8.808594 13.148438 8.28125 12 8.089844 L 12 7.058594 C 12 6.511719 12.449219 6.058594 13 6.058594 L 59 6.058594 C 59.550781 6.058594 60 6.511719 60 7.058594 L 60 38.058594 L 30 38.058594 C 29.445313 38.058594 29 38.503906 29 39.058594 C 29 39.609375 29.445313 40.058594 30 40.058594 L 61 40.058594 C 61.550781 40.058594 62 40.511719 62 41.058594 Z "/>
<path style=" fill:#8D6C9F;" d="M 51 12.058594 C 51.554688 12.058594 52 11.609375 52 11.058594 L 52 9.058594 C 52 8.503906 51.554688 8.058594 51 8.058594 C 50.445313 8.058594 50 8.503906 50 9.058594 L 50 11.058594 C 50 11.609375 50.445313 12.058594 51 12.058594 Z "/>
<path style=" fill:#8D6C9F;" d="M 46 12.058594 C 46.554688 12.058594 47 11.609375 47 11.058594 L 47 9.058594 C 47 8.503906 46.554688 8.058594 46 8.058594 C 45.445313 8.058594 45 8.503906 45 9.058594 L 45 11.058594 C 45 11.609375 45.445313 12.058594 46 12.058594 Z "/>
<path style=" fill:#8D6C9F;" d="M 56 12.058594 C 56.554688 12.058594 57 11.609375 57 11.058594 L 57 9.058594 C 57 8.503906 56.554688 8.058594 56 8.058594 C 55.445313 8.058594 55 8.503906 55 9.058594 L 55 11.058594 C 55 11.609375 55.445313 12.058594 56 12.058594 Z "/>
<path style=" fill:#8D6C9F;" d="M 41 12.058594 C 41.554688 12.058594 42 11.609375 42 11.058594 L 42 9.058594 C 42 8.503906 41.554688 8.058594 41 8.058594 C 40.445313 8.058594 40 8.503906 40 9.058594 L 40 11.058594 C 40 11.609375 40.445313 12.058594 41 12.058594 Z "/>
<path style=" fill:#8D6C9F;" d="M 36 12.058594 C 36.554688 12.058594 37 11.609375 37 11.058594 L 37 9.058594 C 37 8.503906 36.554688 8.058594 36 8.058594 C 35.445313 8.058594 35 8.503906 35 9.058594 L 35 11.058594 C 35 11.609375 35.445313 12.058594 36 12.058594 Z "/>
<path style=" fill:#8D6C9F;" d="M 31 8.058594 C 30.445313 8.058594 30 8.503906 30 9.058594 L 30 11.058594 C 30 11.609375 30.445313 12.058594 31 12.058594 C 31.554688 12.058594 32 11.609375 32 11.058594 L 32 9.058594 C 32 8.503906 31.554688 8.058594 31 8.058594 Z "/>
<path style=" fill:#8D6C9F;" d="M 26 8.058594 C 25.445313 8.058594 25 8.503906 25 9.058594 L 25 11.058594 C 25 11.609375 25.445313 12.058594 26 12.058594 C 26.554688 12.058594 27 11.609375 27 11.058594 L 27 9.058594 C 27 8.503906 26.554688 8.058594 26 8.058594 Z "/>
<path style=" fill:#8D6C9F;" d="M 21 8.058594 C 20.445313 8.058594 20 8.503906 20 9.058594 L 20 11.058594 C 20 11.609375 20.445313 12.058594 21 12.058594 C 21.554688 12.058594 22 11.609375 22 11.058594 L 22 9.058594 C 22 8.503906 21.554688 8.058594 21 8.058594 Z "/>
<path style=" fill:#8D6C9F;" d="M 26 38.058594 L 22 38.058594 C 21.445313 38.058594 21 38.503906 21 39.058594 C 21 39.609375 21.445313 40.058594 22 40.058594 L 26 40.058594 C 26.554688 40.058594 27 39.609375 27 39.058594 C 27 38.503906 26.554688 38.058594 26 38.058594 Z "/>
<path style=" fill:#FAEFDE;" d="M 40.5 33 C 42.429688 33 44 31.652344 44 30 C 44 29.910156 43.976563 29.824219 43.96875 29.738281 C 43.976563 29.6875 44 29.640625 44 29.585938 L 44 19.820313 L 52 18.21875 L 52 25.300781 C 51.542969 25.113281 51.039063 25 50.5 25 C 48.570313 25 47 26.347656 47 28 C 47 29.652344 48.570313 31 50.5 31 C 52.429688 31 54 29.652344 54 28 L 54 17 C 54 16.699219 53.863281 16.417969 53.632813 16.226563 C 53.402344 16.039063 53.101563 15.960938 52.804688 16.019531 L 42.804688 18.019531 C 42.335938 18.113281 42 18.523438 42 19 L 42 27.300781 C 41.542969 27.113281 41.039063 27 40.5 27 C 38.570313 27 37 28.347656 37 30 C 37 31.652344 38.570313 33 40.5 33 Z M 50.5 29 C 49.699219 29 49 28.53125 49 28 C 49 27.46875 49.699219 27 50.5 27 C 51.300781 27 52 27.46875 52 28 C 52 28.53125 51.300781 29 50.5 29 Z M 40.5 29 C 41.300781 29 42 29.46875 42 30 C 42 30.53125 41.300781 31 40.5 31 C 39.699219 31 39 30.53125 39 30 C 39 29.46875 39.699219 29 40.5 29 Z "/>
</g>
</svg>